<svg xmlns="http://www.w3.org/2000/svg" viewBox="0 0 256 256">
  <rect width="256" height="256" rx="40" fill="#FF5D01"/>
  <path d="M182.7 230.6c-4.2 5.7-12.7 8.2-19.3 3.6-13.5-9.3-27.6-20.2-37.6-34.1-21.8 28.5-37.1 37.7-49.1 34.5-10.5-2.9-15.2-14.3-10.7-23.8 9.6-20.7 40.2-70 52.8-95.4 6.6-13 12.5-28.4 6.4-41.1-5.7-12-21.6-17.5-33.4-12.1-5.9 2.7-10.6 7.3-13.6 13-4.6 8.9-3.9 19.7 1.8 28.1 2.7 4 6.2 7.2 10.2 9.4.9.5 1.5 1.4 1.4 2.5-.1 1.1-.9 2-1.9 2.3-1.5.4-3.1.7-4.7.7-12.8 0-24.3-8.2-28.4-20.4-4.5-13.2-.3-27.8 10.5-36.5 11.3-9.2 28.3-10.1 40.6-2.1 13.6 8.8 19.1 26.2 13.3 41.2-8.5 22-29.5 57.7-45.8 85.4 10.8 4.3 24.7-2.9 34.1-12.8 4.2-4.5 8.1-9.3 11.8-14.3 1.3-1.7 3.2-2.7 5.3-2.6 2.1.1 4 1.3 5 3.1 9.8 17.4 23.5 33.8 36.4 48.6 5.2 5.9 11.6 10.6 18.8 13.7 1.5.6 2.4 2.2 2.1 3.8-.4 1.6-1.9 2.7-3.5 2.6h-.4c-9.3-.6-18.3-4.1-25.6-10.1z" fill="#fff"/>
</svg>
